<svg xmlns="http://www.w3.org/2000/svg" xmlns:xlink="http://www.w3.org/1999/xlink" version="1.1" id="Layer_1" x="0px" y="0px" viewBox="0 0 107.5 31" style="enable-background:new 0 0 107.5 31;" xml:space="preserve" width="107.5"  height="31" >
<style type="text/css">
	.st0{fill:#121212;}
	.st1{fill:#6B6E74;}
</style>
<g transform="translate(-52.222 -57.933)">
	<g transform="translate(52.222 57.933)">
		<path class="st0" d="M28.9,27.5c-1.1,1.2-2.4,2.1-3.9,2.7c-1.8,0.6-3.7,0.9-5.6,0.8c-0.4,0-0.9,0-1.4,0c-1.9-0.1-3.9-0.3-5.8-0.6    c-0.9-0.2-1.4-0.3-2.4-0.5c-1.2-0.3-2.4-0.6-3.6-1.1c-0.9-0.4-2-1-2-2c0-2.7,1.3-5.8,4.1-9.6c1-1.4,1.9-2.5,2.5-3.2    c1.6-1.8,3.5-3.3,5.6-4.4c0.6-0.2,1.1-0.4,1.1-0.4c5.4-1.6,11.2,1.2,13.3,6.5C32.7,19.6,31.8,24.2,28.9,27.5z"/>
		<circle class="st0" cx="5.7" cy="8.8" r="5.7"/>
		<path class="st0" d="M14.3,6.9c-0.5,0-1-0.1-1.5-0.3c-0.3-1.2-1-2.2-2-2.9c0-0.1,0-0.1,0-0.2c0-1.9,1.5-3.4,3.4-3.4    s3.4,1.5,3.4,3.4S16.2,6.9,14.3,6.9L14.3,6.9z"/>
	</g>
	<g transform="translate(93.026 62.637)">
		<path class="st0" d="M12.4,0.6h4.3v21.8h-4.3v-9H4.3v9H0V0.6h4.3v8.6h8.1L12.4,0.6z"/>
		<path class="st0" d="M22.4,4.9c-1.3,0-2.4-1.1-2.5-2.5c0-0.7,0.3-1.3,0.7-1.7C21.1,0.3,21.8,0,22.4,0c0.7,0,1.3,0.3,1.8,0.7    c0.5,0.5,0.7,1.1,0.7,1.7C24.9,3.8,23.8,4.9,22.4,4.9L22.4,4.9z M20.4,22.4V6.8h4v15.6H20.4z"/>
		<path class="st0" d="M38.3,6.8h4.4l-5.9,15.6h-4.6L26.3,6.8h4.4l3.8,10.9L38.3,6.8z"/>
		<path class="st0" d="M47.3,16.2c0.5,2,2,2.9,4.4,2.9c1.3,0.1,2.6-0.5,3.5-1.6l3.2,1.9c-1.5,2.2-4.1,3.5-6.8,3.3    c-2.3,0.1-4.5-0.7-6.2-2.3c-3.1-3.3-3.1-8.4,0-11.7c1.6-1.6,3.7-2.4,5.9-2.4c2.1-0.1,4.2,0.8,5.6,2.4c1.5,1.6,2.3,3.7,2.2,5.8    c0,0.6-0.1,1.1-0.2,1.6L47.3,16.2z M47.3,13.1h7.9c-0.2-0.9-0.7-1.8-1.4-2.4c-0.7-0.5-1.6-0.8-2.4-0.8c-1,0-1.9,0.3-2.7,0.8    C47.9,11.4,47.4,12.2,47.3,13.1L47.3,13.1z"/>
	</g>
</g>
<g>
	<path class="st1" d="M102.6,6.8v0.7h-1.2v3.6h-0.7V7.5h-1.2V6.8H102.6z"/>
	<path class="st1" d="M107.2,6.8v4.3h-0.7V8l-1.3,2.2h-0.1L103.8,8v3.1h-0.7V6.8h0.8l1.3,2.1l1.3-2.1H107.2z"/>
</g>
</svg>